#!OML:ASF H:\ManfredETheater\Project 1\Capture day 1\Session 1\subject.ASF
:FULLY-SPECIFIED
:DEGREES
248
root -1.86407 17.2803 42.2654 5.28546 10.3534 0.970289
lowerback 8.42212 -1.42324 0.929079
upperback -2.25057 -1.68876 1.59401
thorax -7.07404 -0.829363 1.39453
lowerneck -18.5469 -7.00937 -8.08224
upperneck 7.35827 -8.30273 7.06749
head 5.84648 -3.75143 2.65905
rclavicle -9.59136e-015 3.10104e-014
rhumerus -36.4939 -8.37459 -79.9313
rradius 40.9861
rwrist -5.34786
rhand -22.1242 -12.27
rfingers 7.12502
rthumb 4.28883 -42.2066
lclavicle -9.59136e-015 3.10104e-014
lhumerus -40.8286 10.6487 79.5334
lradius 50.4414
lwrist -8.57308
lhand -11.1681 4.93006
lfingers 7.12502
lthumb 14.8586 34.3773
rfemur -7.65142 10.5356 21.9722
rtibia 25.7434
rfoot -16.3383 4.42057
rtoes 17.0116
lfemur -30.342 -3.64572 -19.3284
ltibia 42.3295
lfoot -14.9655 1.39504
ltoes -7.30373
249
root -1.86165 17.2842 42.3393 5.32765 9.82178 0.823092
lowerback 8.28944 -1.37505 1.03236
upperback -2.292 -1.61172 1.64138
thorax -7.04471 -0.795151 1.37216
lowerneck -18.7478 -6.90699 -7.9601
upperneck 7.44268 -8.16324 6.91692
head 5.88243 -3.68677 2.60325
rclavicle 5.76476e-015 -1.19271e-014
rhumerus -36.5048 -8.45454 -79.8449
rradius 40.8807
rwrist -5.24393
rhand -22.1202 -12.2831
rfingers 7.12502
rthumb 4.29272 -42.2196
lclavicle 5.76476e-015 -1.19271e-014
lhumerus -40.7742 10.6851 79.4527
lradius 50.058
lwrist -8.72824
lhand -10.9128 5.02477
lfingers 7.12502
lthumb 15.1044 34.4536
rfemur -7.2615 10.458 22.1002
rtibia 25.2261
rfoot -16.2103 5.06132
rtoes 17.4137
lfemur -30.6262 -3.76728 -19.3927
ltibia 40.8149
lfoot -14.9065 1.35764
ltoes -6.71282
250
root -1.85957 17.2872 42.4129 5.37241 9.30035 0.65919
lowerback 8.15668 -1.32826 1.13787
upperback -2.33064 -1.53617 1.69616
thorax -7.01205 -0.761574 1.35666
lowerneck -18.9441 -6.80631 -7.83765
upperneck 7.52349 -8.02714 6.77033
head 5.91733 -3.62376 2.54847
rclavicle 3.13086e-015 -2.22639e-014
rhumerus -36.5113 -8.5238 -79.7549
rradius 40.7565
rwrist -5.13447
rhand -22.1133 -12.2968
rfingers 7.12502
rthumb 4.29939 -42.2332
lclavicle 3.13086e-015 -2.22639e-014
lhumerus -40.7327 10.724 79.3635
lradius 49.6888
lwrist -8.8779
lhand -10.6656 5.09871
lfingers 7.12502
lthumb 15.3426 34.5095
rfemur -6.88135 10.3313 22.2423
rtibia 24.7165
rfoot -16.0739 5.72951
rtoes 17.8231
lfemur -30.9287 -3.85554 -19.4172
ltibia 39.3964
lfoot -14.7908 1.29331
ltoes -6.15404
251
root -1.85776 17.289 42.4865 5.42324 8.78936 0.487905
lowerback 8.01647 -1.28272 1.23732
upperback -2.36438 -1.46324 1.7553
thorax -6.96945 -0.728921 1.34939
lowerneck -19.1367 -6.70708 -7.71446
upperneck 7.59951 -7.89404 6.62734
head 5.95086 -3.56219 2.49457
rclavicle -6.95746e-016 1.27222e-014
rhumerus -36.5101 -8.58347 -79.6621
rradius 40.6103
rwrist -5.03033
rhand -22.1163 -12.2874
rfingers 7.12502
rthumb 4.29648 -42.2238
lclavicle -6.95746e-016 1.27222e-014
lhumerus -40.6966 10.766 79.2654
lradius 49.3344
lwrist -9.03703
lhand -10.4114 5.17406
lfingers 7.12502
lthumb 15.5875 34.5659
rfemur -6.51615 10.1541 22.3882
rtibia 24.2245
rfoot -15.9353 6.43209
rtoes 18.2488
lfemur -31.2509 -3.89695 -19.42
ltibia 38.0887
lfoot -14.619 1.20859
ltoes -5.67676
252
root -1.85635 17.2896 42.5597 5.47869 8.28418 0.311023
lowerback 7.87962 -1.23671 1.32543
upperback -2.39845 -1.39085 1.81894
thorax -6.92864 -0.695896 1.35361
lowerneck -19.3226 -6.60861 -7.5894
upperneck 7.67619 -7.76328 6.48401
head 5.984 -3.50203 2.44018
rclavicle 5.56597e-015 -8.74653e-015
rhumerus -36.5083 -8.6331 -79.5645
rradius 40.4459
rwrist -4.93473
rhand -22.1228 -12.268
rfingers 7.12502
rthumb 4.29018 -42.2045
lclavicle 5.56597e-015 -8.74653e-015
lhumerus -40.669 10.8089 79.1583
lradius 48.9857
lwrist -9.19843
lhand -10.1637 5.23912
lfingers 7.12502
lthumb 15.826 34.6123
rfemur -6.17083 9.94109 22.5375
rtibia 23.7623
rfoot -15.7971 7.15756
rtoes 18.7067
lfemur -31.593 -3.88537 -19.4068
ltibia 36.9042
lfoot -14.4282 1.07639
ltoes -5.3885
253
root -1.85528 17.289 42.6329 5.54445 7.79574 0.130721
lowerback 7.73846 -1.19401 1.40279
upperback -2.43562 -1.3241 1.88656
thorax -6.88816 -0.665067 1.36898
lowerneck -19.4966 -6.51069 -7.46539
upperneck 7.75278 -7.63453 6.34285
head 6.01588 -3.44313 2.38672
rclavicle -1.35671e-014 -1.66979e-014
rhumerus -36.5089 -8.68005 -79.4584
rradius 40.2607
rwrist -4.83289
rhand -22.1275 -12.2345
rfingers 7.12502
rthumb 4.28561 -42.1711
lclavicle -1.35671e-014 -1.66979e-014
lhumerus -40.6482 10.8532 79.0432
lradius 48.6357
lwrist -9.35578
lhand -9.93239 5.29515
lfingers 7.12502
lthumb 16.0488 34.6505
rfemur -5.85265 9.68975 22.6881
rtibia 23.339
rfoot -15.6654 7.8998
rtoes 19.2114
lfemur -31.9556 -3.82701 -19.3826
ltibia 35.8484
lfoot -14.2374 0.888931
ltoes -5.35483
254
root -1.8541 17.2866 42.7063 5.61006 7.30557 -0.049818
lowerback 7.59775 -1.14875 1.46918
upperback -2.47149 -1.25534 1.95468
thorax -6.84629 -0.632741 1.39094
lowerneck -19.656 -6.41318 -7.34404
upperneck 7.82765 -7.50778 6.20754
head 6.04578 -3.38526 2.33568
rclavicle 1.25234e-014 1.11319e-014
rhumerus -36.5113 -8.72932 -79.3436
rradius 40.0551
rwrist -4.7255
rhand -22.1257 -12.2012
rfingers 7.12502
rthumb 4.2874 -42.1378
lclavicle 1.25234e-014 1.11319e-014
lhumerus -40.633 10.8982 78.9195
lradius 48.2789
lwrist -9.51154
lhand -9.73146 5.32389
lfingers 7.12502
lthumb 16.2422 34.6635
rfemur -5.55227 9.42033 22.8347
rtibia 22.9587
rfoot -15.542 8.65864
rtoes 19.7581
lfemur -32.3167 -3.71541 -19.3562
ltibia 34.9261
lfoot -14.0726 0.689462
ltoes -5.67417
